<svg width="22" height="23" viewBox="0 0 22 23" fill="none" xmlns="http://www.w3.org/2000/svg">
<mask id="path-1-outside-1_8_48" maskUnits="userSpaceOnUse" x="0" y="0" width="22" height="23" fill="black">
<rect fill="white" width="22" height="23"/>
<path d="M0 11C0 4.92487 4.92487 0 11 0C17.0751 0 22 4.92487 22 11C22 17.0751 17.0751 22 11 22C4.92487 22 0 17.0751 0 11Z"/>
</mask>
<path d="M0 11C0 4.92487 4.92487 0 11 0C17.0751 0 22 4.92487 22 11C22 17.0751 17.0751 22 11 22C4.92487 22 0 17.0751 0 11Z" fill="#FEDC60"/>
<path d="M0 0H22H0ZM22 11.6286C22 17.7037 17.0751 22.6286 11 22.6286C4.92487 22.6286 0 17.7037 0 11.6286V11C0 16.728 4.92487 21.3714 11 21.3714C17.0751 21.3714 22 16.728 22 11V11.6286ZM0 22V0V22ZM22 0V22V0Z" fill="#FAA21C" mask="url(#path-1-outside-1_8_48)"/>
<g clip-path="url(#clip0_8_48)">
<rect x="2.20004" y="2.20008" width="17.6" height="17.6" rx="8.8" fill="#FFA31A"/>
<g filter="url(#filter0_d_8_48)">
<path d="M21.6857 10.8429C21.6857 16.8312 16.8312 21.6857 10.8429 21.6857C4.85454 21.6857 3.05176e-05 16.8312 3.05176e-05 10.8429C3.05176e-05 4.85452 4.85454 7.62939e-06 10.8429 7.62939e-06C16.8312 7.62939e-06 21.6857 4.85452 21.6857 10.8429ZM1.65822 10.8429C1.65822 15.9154 5.77034 20.0275 10.8429 20.0275C15.9154 20.0275 20.0276 15.9154 20.0276 10.8429C20.0276 5.77031 15.9154 1.6582 10.8429 1.6582C5.77034 1.6582 1.65822 5.77031 1.65822 10.8429Z" fill="#D9D9D9"/>
</g>
<g filter="url(#filter1_d_8_48)">
<path d="M7.75407 16.1429V6.48058H11.5662C12.299 6.48058 12.9234 6.62055 13.4392 6.90048C13.955 7.17727 14.3482 7.56256 14.6187 8.05637C14.8923 8.54704 15.0291 9.11319 15.0291 9.75483C15.0291 10.3965 14.8907 10.9626 14.614 11.4533C14.3372 11.944 13.9361 12.3261 13.4109 12.5997C12.8888 12.8734 12.2566 13.0102 11.5143 13.0102H9.08453V11.3731H11.184C11.5772 11.3731 11.9011 11.3055 12.1559 11.1702C12.4138 11.0318 12.6057 10.8415 12.7315 10.5993C12.8605 10.354 12.9249 10.0725 12.9249 9.75483C12.9249 9.43401 12.8605 9.15408 12.7315 8.91504C12.6057 8.67285 12.4138 8.48571 12.1559 8.3536C11.898 8.21836 11.5709 8.15073 11.1746 8.15073H9.79694V16.1429H7.75407Z" fill="#FFE56A"/>
</g>
</g>
<rect x="2.0429" y="2.04294" width="17.9143" height="17.9143" rx="8.95714" stroke="url(#paint0_linear_8_48)" stroke-width="0.314286"/>
<defs>
<filter id="filter0_d_8_48" x="-2.51426" y="-0.314278" width="26.0857" height="26.0857" filterUnits="userSpaceOnUse" color-interpolation-filters="sRGB">
<feFlood flood-opacity="0" result="BackgroundImageFix"/>
<feColorMatrix in="SourceAlpha" type="matrix" values="0 0 0 0 0 0 0 0 0 0 0 0 0 0 0 0 0 0 127 0" result="hardAlpha"/>
<feMorphology radius="0.628572" operator="dilate" in="SourceAlpha" result="effect1_dropShadow_8_48"/>
<feOffset dx="-0.314286" dy="1.88571"/>
<feGaussianBlur stdDeviation="0.785714"/>
<feComposite in2="hardAlpha" operator="out"/>
<feColorMatrix type="matrix" values="0 0 0 0 0.863432 0 0 0 0 0.503701 0 0 0 0 0.0994321 0 0 0 1 0"/>
<feBlend mode="normal" in2="BackgroundImageFix" result="effect1_dropShadow_8_48"/>
<feBlend mode="normal" in="SourceGraphic" in2="effect1_dropShadow_8_48" result="shape"/>
</filter>
<filter id="filter1_d_8_48" x="5.86834" y="4.59487" width="11.0465" height="13.4338" filterUnits="userSpaceOnUse" color-interpolation-filters="sRGB">
<feFlood flood-opacity="0" result="BackgroundImageFix"/>
<feColorMatrix in="SourceAlpha" type="matrix" values="0 0 0 0 0 0 0 0 0 0 0 0 0 0 0 0 0 0 127 0" result="hardAlpha"/>
<feOffset/>
<feGaussianBlur stdDeviation="0.942857"/>
<feComposite in2="hardAlpha" operator="out"/>
<feColorMatrix type="matrix" values="0 0 0 0 0 0 0 0 0 0 0 0 0 0 0 0 0 0 0.25 0"/>
<feBlend mode="normal" in2="BackgroundImageFix" result="effect1_dropShadow_8_48"/>
<feBlend mode="normal" in="SourceGraphic" in2="effect1_dropShadow_8_48" result="shape"/>
</filter>
<linearGradient id="paint0_linear_8_48" x1="11" y1="1.41437" x2="11" y2="18.3858" gradientUnits="userSpaceOnUse">
<stop stop-color="#FEAE0F"/>
<stop offset="1" stop-color="#FFDD53"/>
</linearGradient>
<clipPath id="clip0_8_48">
<rect x="2.20004" y="2.20008" width="17.6" height="17.6" rx="8.8" fill="white"/>
</clipPath>
</defs>
</svg>
