<?xml version="1.0" encoding="utf-8"?>
<!-- Generator: Adobe Illustrator 28.1.0, SVG Export Plug-In . SVG Version: 6.00 Build 0)  -->
<svg version="1.1" id="Layer_1" xmlns="http://www.w3.org/2000/svg" xmlns:xlink="http://www.w3.org/1999/xlink" x="0px" y="0px"
	 viewBox="0 0 800 800" style="enable-background:new 0 0 800 800;" xml:space="preserve">
<style type="text/css">
	.st0{fill:#32BCAD;}
</style>
<path class="st0" d="M595.8,585.5c-27.3,0.1-53.4-10.8-72.7-30.1l-105-105c-7.7-7.3-19.8-7.3-27.6,0L285.2,555.8
	c-19.2,19.3-45.4,30.2-72.7,30.1h-20.7l133,133c41.5,41.5,108.9,41.5,150.3,0l133.3-133.4L595.8,585.5L595.8,585.5z M212.5,214.1
	c27.5,0,53.3,10.7,72.7,30.1l105.4,105.4c7.6,7.6,20,7.6,27.6,0c0,0,0,0,0,0l105-105c19.2-19.3,45.4-30.2,72.7-30.1h12.7L475.2,81.2
	c-41.5-41.5-108.8-41.5-150.4,0l-133,133L212.5,214.1L212.5,214.1z"/>
<path class="st0" d="M718.8,324.8l-80.6-80.6c-1.8,0.7-3.7,1.1-5.7,1.1h-36.6c-19,0-37.5,7.7-50.9,21.1l-105,105
	c-19.6,19.7-51.4,19.8-71.1,0.2c-0.1-0.1-0.1-0.1-0.2-0.2L263.4,266c-13.5-13.5-31.8-21.1-50.9-21.1h-45c-1.9,0-3.7-0.4-5.4-1
	l-80.9,80.9c-41.5,41.5-41.5,108.9,0,150.4l80.9,80.9c1.7-0.7,3.5-1.1,5.4-1.1h45c19,0,37.5-7.7,50.9-21.1l105.4-105.4
	c20-19,51.3-19,71.3,0l105,105c13.4,13.4,31.9,21,50.9,21h36.6c2,0,4,0.5,5.7,1.2l80.6-80.6C760.3,433.7,760.3,366.2,718.8,324.8
	L718.8,324.8z"/>
</svg>
